<?xml version="1.0" encoding="UTF-8"?>
<svg xmlns="http://www.w3.org/2000/svg" width="1040" height="390" viewBox="0 0 1040 390" role="img" aria-label="L-201 Section A-A"><style>@import url('https://fonts.googleapis.com/css2?family=Barlow:wght@400;500;600&amp;family=Barlow+Condensed:wght@500;600;700&amp;family=Bricolage+Grotesque:opsz,wght@12..96,700;12..96,800&amp;display=swap');
.sheet-bg{fill:#FBFCFC}
.frame{fill:none;stroke:#16283A;stroke-width:1.4}
.frame-in{fill:none;stroke:#16283A;stroke-width:.7}
.ln{fill:none;stroke:#16283A;stroke-width:1}
.ln-h{fill:none;stroke:#16283A;stroke-width:2;stroke-linejoin:round;stroke-linecap:round}
.ln-m{fill:none;stroke:#4A5C6F;stroke-width:.8}
.ln-f{fill:none;stroke:#93A3B2;stroke-width:.6}
.ln-b{fill:none;stroke:#4A5C6F;stroke-width:.8;stroke-dasharray:4 3}
.ln-water{fill:none;stroke:#0D7F8A;stroke-width:1.2}
.gap{stroke:#FBFCFC;stroke-width:5}
.z-paver,.z-town{fill:#E1E6EA}
.z-brick{fill:#EDD0BD}
.z-lawn{fill:#CDE4B3}
.z-conc{fill:#D3D9DC}
.z-timber{fill:#E6CFA6}
.z-sand{fill:#FBF7EA}
.z-sea{fill:#BCE4EB}
.z-deep{fill:#8CC7D8}
.z-cliff{fill:#CBC5BC}
.z-rockp{fill:#CBC5BC;opacity:.75}
.bldg{fill:#D5DFE9;stroke:#16283A;stroke-width:1.6}
.bldg-l{fill:#D5DFE9;stroke:#16283A;stroke-width:.9}
.beyond{fill:#D5DFE9;fill-opacity:.55;stroke:#4A5C6F;stroke-width:.8}
.under{fill:#D5DFE9;fill-opacity:.5;stroke:#4A5C6F;stroke-width:.8;stroke-dasharray:3 2}
.wall{fill:#FBFCFC;stroke:#16283A;stroke-width:4}
.glass{fill:none;stroke:#0D7F8A;stroke-width:1.6}
.solid{fill:#16283A}
.led{fill:#16283A;opacity:.85}
.conc{fill:#D3D9DC;stroke:#16283A;stroke-width:1}
.poche{fill:#CBC5BC}
.water{fill:#BCE4EB;opacity:.85}
.tree{fill:#9BCA84;stroke:#58894C;stroke-width:.7}
.trunk{fill:none;stroke:#58894C;stroke-width:1.4}
.prop{fill:#FBFCFC;stroke:#16283A;stroke-width:.7}
.prop-d{fill:#4A5C6F}
.umb-y{fill:#F0BE2C;stroke:#16283A;stroke-width:.5}
.umb-p{fill:#E5539A;stroke:#16283A;stroke-width:.5}
.umb-c{fill:#24ABCC;stroke:#16283A;stroke-width:.5}
.chalk-y{fill:#F0BE2C}
.chalk-p{fill:#E5539A}
.chalk-c{fill:#24ABCC}
.ring-acc{fill:none;stroke:#D93A55;stroke-width:1.6}
.bunting{fill:none;stroke:#E5539A;stroke-width:1;stroke-dasharray:2.5 2}
.pat-s{fill:none;stroke:#93A3B2;stroke-width:.5}
.pat-d{fill:#93A3B2}
.pat-w{fill:none;stroke:#FBFCFC;stroke-width:.7;opacity:.7}
.pat-g{fill:none;stroke:#58894C;stroke-width:.6;opacity:.55}
.path-edge{fill:none;stroke:#93A3B2;stroke-width:17}
.path-fill{fill:none;stroke:#E1E6EA;stroke-width:15}
.grid{fill:none;stroke:#93A3B2;stroke-width:.5;stroke-dasharray:2 4}
.bubble{fill:#FBFCFC;stroke:#16283A;stroke-width:.8}
.circ1{fill:none;stroke:#D93A55;stroke-width:2.2;stroke-dasharray:8 4;stroke-linecap:round}
.circ2{fill:none;stroke:#D93A55;stroke-width:1.2;stroke-dasharray:3 3;stroke-linecap:round}
.sight{fill:none;stroke:#0D7F8A;stroke-width:1.4;stroke-dasharray:1.5 3.5;stroke-linecap:round}
.cut{fill:none;stroke:#D93A55;stroke-width:.9;stroke-dasharray:14 3 2 3}
.cut-h{fill:none;stroke:#D93A55;stroke-width:3}
.acc-f{fill:#D93A55}
.teal-f{fill:#0D7F8A}
.ink-f{fill:#16283A}
.sheet-f{fill:#FBFCFC}
.dim{fill:none;stroke:#16283A;stroke-width:.6}
.dim-t{fill:none;stroke:#16283A;stroke-width:1.1}
.avatar{fill:#24ABCC;stroke:#16283A;stroke-width:.6}
.cam{fill:#0D7F8A}
.t-zone{font:700 12px "Barlow Condensed", "Arial Narrow", ui-sans-serif, sans-serif;letter-spacing:.08em;fill:#16283A}
.t-big{font:700 16px "Barlow Condensed", "Arial Narrow", ui-sans-serif, sans-serif;letter-spacing:.14em;fill:#16283A}
.t-lbl{font:600 9.5px "Barlow Condensed", "Arial Narrow", ui-sans-serif, sans-serif;letter-spacing:.03em;fill:#16283A}
.t-sm{font:500 8px "Barlow Condensed", "Arial Narrow", ui-sans-serif, sans-serif;letter-spacing:.02em;fill:#4A5C6F}
.t-dim{font:600 8.5px "Barlow Condensed", "Arial Narrow", ui-sans-serif, sans-serif;fill:#16283A}
.t-head{font:700 15px "Barlow Condensed", "Arial Narrow", ui-sans-serif, sans-serif;letter-spacing:.12em;fill:#16283A}
.t-title{font:800 21px "Bricolage Grotesque", ui-sans-serif, system-ui, sans-serif;fill:#16283A}
.t-acc{fill:#D93A55}
.t-teal{fill:#0D7F8A}
.t-inv{fill:#FBFCFC}
.halo{paint-order:stroke;stroke:#FBFCFC;stroke-width:3px;stroke-linejoin:round}
.z-road{fill:#93A3B2;opacity:.6}
.lane{fill:none;stroke:#FBFCFC;stroke-width:1;stroke-dasharray:6 5}
.zebra{fill:#FBFCFC}
.tree-s{fill:#E5539A;fill-opacity:.45;stroke:#E5539A;stroke-width:.8}
.trim-y{fill:none;stroke:#F0BE2C;stroke-width:2.4}
.arc-y{fill:#F0BE2C;fill-opacity:.32}
.key{fill:#16283A}
.statue{fill:#FBFCFC;stroke:#16283A;stroke-width:1.2}
.tree-o{fill:#9BCA84;stroke:#58894C;stroke-width:1.5}
.tree-f{fill:#9BCA84}
.sak-o{fill:#F5C3D8;stroke:#E5539A;stroke-width:1.3}
.sak-f{fill:#F5C3D8}
.shrub-o{fill:#86BB6D;stroke:#58894C;stroke-width:1}
.shrub-f{fill:#86BB6D}
.bed{fill:#86BB6D;stroke:#58894C;stroke-width:.9}
.leaf{fill:none;stroke:#58894C;stroke-width:.7;opacity:.8;stroke-linecap:round}
.blossom{fill:#E5539A}
.palm{fill:#7DB268;stroke:#58894C;stroke-width:.6;stroke-linejoin:round}
.shadow{fill:#16283A;opacity:.12}
.rock{fill:#CBC5BC;stroke:#4A5C6F;stroke-width:.8;stroke-linejoin:round}
.foam{fill:none;stroke:#FFFFFF;stroke-width:1.5;stroke-linecap:round;stroke-linejoin:round}
.foam-d{fill:none;stroke:#FFFFFF;stroke-width:1;stroke-dasharray:4 3;stroke-linecap:round}
.z-mid{fill:#A5D6E2}
.z-wet{fill:#F0EAD8}
.roof{fill:#BAC7D4;stroke:#16283A;stroke-width:1.6}
.roof-2{fill:#9DAFC1}
.post{fill:#16283A}
.rail{fill:none;stroke:#16283A;stroke-width:.9}
.tread{fill:none;stroke:#4A5C6F;stroke-width:.5}
.joint{fill:none;stroke:#93A3B2;stroke-width:.45}
.band{fill:#C4D1D8}
.wall-l{fill:none;stroke:#16283A;stroke-width:3.2;stroke-linecap:square}
.wall6{fill:none;stroke:#16283A;stroke-width:2.4}
.string{fill:none;stroke:#4A5C6F;stroke-width:.6;stroke-dasharray:1 2}
.bulb{fill:#F0BE2C}
.door{fill:none;stroke:#4A5C6F;stroke-width:.6}
.curb{fill:none;stroke:#16283A;stroke-width:1.1;stroke-linejoin:round}
.wallp{fill:#4A5C6F;stroke:#16283A;stroke-width:.5;stroke-linejoin:miter}

.e-yel{fill:#F7CB3B;stroke:#16283A;stroke-width:.9;stroke-linejoin:round}
.e-yel2{fill:#E3AE1F}
.e-yel3{fill:#FFE27A}
.e-cream{fill:#F7F2E6;stroke:#16283A;stroke-width:.9;stroke-linejoin:round}
.e-cream2{fill:#DED6C3}
.e-dark{fill:#2E333B}
.e-blue{fill:#2F8FE8;stroke:#16283A;stroke-width:.7}
.e-red{fill:#E8414E;stroke:#16283A;stroke-width:.7}
.e-green{fill:#3FB950;stroke:#16283A;stroke-width:.7}
.e-glass{fill:#CBE8EE;stroke:#16283A;stroke-width:.8}
.e-glass-t{fill:#CBE8EE;fill-opacity:.45;stroke:none}
.e-glow{fill:#FFE7B0}
.e-pink{fill:#F59BC3}
.e-pink-o{fill:#F59BC3;stroke:#16283A;stroke-width:.7}
.e-lilac{fill:#B9A2EE}
.e-poster{fill:#3D8BE0;stroke:#16283A;stroke-width:.6}
.e-wall{fill:#F1E9DA;stroke:#16283A;stroke-width:.9;stroke-linejoin:round}
.e-coral{fill:#EE8A6B;stroke:#16283A;stroke-width:.8}
.e-mint{fill:#A9DCC6;stroke:#16283A;stroke-width:.8}
.e-navy{fill:#2C3E57}
.e-steel{fill:#8C99A6;stroke:#16283A;stroke-width:.6}
.e-wood{fill:#E6CFA6;stroke:#16283A;stroke-width:.8}
.e-conc{fill:#D3D9DC;stroke:#16283A;stroke-width:.8}
.e-thatch{fill:#D9B477;stroke:#16283A;stroke-width:.9;stroke-linejoin:round}
.e-orange{fill:#F59A3A}
.e-white{fill:#FFFFFF}
.e-sky{fill:#E4F2F7}
.e-shadow{fill:#16283A;opacity:.15}
.e-joint{fill:none;stroke:#16283A;stroke-width:.45;opacity:.3}
.e-mull{fill:none;stroke:#16283A;stroke-width:1}
.e-mull-t{fill:none;stroke:#2E333B;stroke-width:1.6}
.e-hl{fill:none;stroke:#FFFFFF;stroke-width:1.4;opacity:.75;stroke-linecap:round}
.e-led{fill:none;stroke:#FFFFFF;stroke-width:1.6;stroke-linecap:round}
.e-led-p{fill:none;stroke:#F59BC3;stroke-width:1.4;stroke-linecap:round}
.e-led-c{fill:none;stroke:#24ABCC;stroke-width:1.4;stroke-linecap:round}
.e-out{fill:none;stroke:#16283A;stroke-width:1.3;stroke-linejoin:round}
.e-ghost{fill:none;stroke:#4A5C6F;stroke-width:.8;stroke-dasharray:4 3}
.e-ground{fill:none;stroke:#16283A;stroke-width:2.2;stroke-linecap:square}
.e-wave{fill:none;stroke:#3D8BE0;stroke-width:1.2;stroke-linecap:round}
.e-wave-y{fill:none;stroke:#E3AE1F;stroke-width:1.4;stroke-linecap:round}
.e-break{fill:none;stroke:#4A5C6F;stroke-width:.8}
.e-rope{fill:none;stroke:#4A5C6F;stroke-width:.6}
.e-fern{fill:#86BB6D;stroke:#58894C;stroke-width:.6;stroke-linejoin:round}
.e-key{font:600 9px "Barlow Condensed", "Arial Narrow", ui-sans-serif, sans-serif;letter-spacing:.03em;fill:#16283A}
.e-fd{font-family:"Bricolage Grotesque", ui-sans-serif, system-ui, sans-serif}
.e-fb{font-family:"Barlow", ui-sans-serif, system-ui, sans-serif}
.e-fc{font-family:"Barlow Condensed", "Arial Narrow", ui-sans-serif, sans-serif}
</style><defs>
<pattern id="ca-brick" width="8" height="8" patternUnits="userSpaceOnUse"><path class="pat-s" d="M0 4 2 2 4 4 6 2 8 4M0 8 2 6 4 8 6 6 8 8"/></pattern>
<pattern id="ca-sand" width="9" height="9" patternUnits="userSpaceOnUse"><circle class="pat-d" cx="1.5" cy="1.5" r=".55"/><circle class="pat-d" cx="6" cy="4.5" r=".5"/><circle class="pat-d" cx="3" cy="7.5" r=".45"/></pattern>
<pattern id="ca-board" width="3" height="10" patternUnits="userSpaceOnUse"><path class="pat-s" d="M0 0V10"/></pattern>
<pattern id="ca-rock" width="6" height="6" patternUnits="userSpaceOnUse" patternTransform="rotate(45)"><path class="pat-s" d="M0 0V6"/></pattern>
<pattern id="ca-water" width="18" height="10" patternUnits="userSpaceOnUse"><path class="pat-w" d="M1 6q2-2.4 4 0t4 0"/></pattern>
<pattern id="ca-lawn" width="14" height="12" patternUnits="userSpaceOnUse"><path class="pat-g" d="M3 3l1.2 2 1.2-2M9 8l1.2 2 1.2-2"/></pattern>
<pattern id="ca-hatch" width="5" height="5" patternUnits="userSpaceOnUse" patternTransform="rotate(-45)"><path class="pat-s" d="M0 0V5"/></pattern>
<pattern id="ca-earth" width="6" height="6" patternUnits="userSpaceOnUse" patternTransform="rotate(45)"><path class="pat-s" d="M0 0V6"/><circle class="pat-d" cx="3" cy="3" r=".5"/></pattern>
<pattern id="ca-boardh" width="10" height="3" patternUnits="userSpaceOnUse"><path class="pat-s" d="M0 0H10"/></pattern>
<pattern id="ca-pave" width="12" height="12" patternUnits="userSpaceOnUse"><path class="joint" d="M0 0H12M0 0V12"/></pattern>
<pattern id="ca-stripe" width="5" height="5" patternUnits="userSpaceOnUse"><rect width="2.5" height="5" class="chalk-p"/></pattern>
<pattern id="ca-stripey" width="5" height="5" patternUnits="userSpaceOnUse"><rect width="2.5" height="5" class="chalk-y"/></pattern>
<pattern id="ca-stripec" width="5" height="5" patternUnits="userSpaceOnUse"><rect width="2.5" height="5" class="chalk-c"/></pattern>
<pattern id="ca-thatch" width="4" height="4" patternUnits="userSpaceOnUse" patternTransform="rotate(30)"><path class="pat-s" d="M0 0V4M2 0V2"/></pattern>
<marker id="ca-arr" viewBox="0 0 10 10" refX="7" refY="5" markerWidth="5" markerHeight="5" orient="auto-start-reverse"><path class="acc-f" d="M0 0 10 5 0 10z"/></marker>
<marker id="ca-arrt" viewBox="0 0 10 10" refX="7" refY="5" markerWidth="5" markerHeight="5" orient="auto-start-reverse"><path class="teal-f" d="M0 0 10 5 0 10z"/></marker>
<marker id="ca-arrk" viewBox="0 0 10 10" refX="7" refY="5" markerWidth="4.5" markerHeight="4.5" orient="auto-start-reverse"><path class="ink-f" d="M0 0 10 5 0 10z"/></marker>
</defs>
<rect class="sheet-bg" width="1040" height="390"/>
<rect class="ink-f" x="24" y="17" width="55.0" height="18"/>
<text class="t-head t-inv" x="30" y="31">L-201</text>
<text class="t-head" x="89.0" y="31">SECTION A–A · X = 90.8 · STREET → PLAZA → BEACH · LOOKING EAST</text>
<text class="t-sm" x="24" y="48">Horizontal 5.2 px = 1 m · vertical 10 px = 1 m (vertical exaggeration 1.9×) · light line = beyond</text>
<rect x="50" y="106" width="57.2" height="60" class="beyond"/>
<rect x="238.07" y="186" width="36.4" height="28" class="beyond"/>
<text x="256.27" y="178" text-anchor="middle" class="t-sm halo">FOOD TRUCKS</text>
<rect x="375" y="160" width="163.8" height="54" class="beyond"/>
<rect x="398.4" y="156" width="86.67" height="4" class="chalk-y"/>
<text x="454.73" y="188" text-anchor="middle" class="t-sm halo">LIFESTYLE SHOP beyond</text>
<ellipse cx="350.73" cy="188" rx="17.68" ry="2.6" class="statue"/>
<text x="350.73" y="180" text-anchor="middle" class="t-sm halo">CAT</text>
<line x1="407.93" y1="214" x2="407.93" y2="170.6" class="trunk"/>
<g class="tree-o"><ellipse cx="407.93" cy="170.6" rx="20.59" ry="18.19"/><ellipse cx="390.42" cy="172.88" rx="10.03" ry="11.14"/><ellipse cx="391.31" cy="165.5" rx="11.99" ry="10.33"/><ellipse cx="395.58" cy="160.09" rx="10.84" ry="9.18"/><ellipse cx="403.99" cy="156.31" rx="12.34" ry="10.38"/><ellipse cx="411.49" cy="156.24" rx="11.85" ry="9.84"/><ellipse cx="421.4" cy="161.07" rx="12.51" ry="11.38"/><ellipse cx="424.3" cy="164.97" rx="9.84" ry="9.43"/><ellipse cx="425.41" cy="173.07" rx="10.93" ry="9.41"/></g>
<g class="tree-f"><ellipse cx="407.93" cy="170.6" rx="19.69" ry="17.29"/><ellipse cx="390.42" cy="172.88" rx="9.13" ry="10.24"/><ellipse cx="391.31" cy="165.5" rx="11.09" ry="9.43"/><ellipse cx="395.58" cy="160.09" rx="9.94" ry="8.28"/><ellipse cx="403.99" cy="156.31" rx="11.44" ry="9.48"/><ellipse cx="411.49" cy="156.24" rx="10.95" ry="8.94"/><ellipse cx="421.4" cy="161.07" rx="11.61" ry="10.48"/><ellipse cx="424.3" cy="164.97" rx="8.94" ry="8.53"/><ellipse cx="425.41" cy="173.07" rx="10.03" ry="8.51"/></g>
<rect x="606.4" y="226" width="260" height="3" class="beyond"/>
<line x1="637.6" y1="229" x2="637.6" y2="266" class="ln-m"/>
<line x1="668.8" y1="229" x2="668.8" y2="266" class="ln-m"/>
<line x1="700" y1="229" x2="700" y2="266" class="ln-m"/>
<line x1="731.2" y1="229" x2="731.2" y2="266" class="ln-m"/>
<line x1="762.4" y1="229" x2="762.4" y2="266" class="ln-m"/>
<line x1="793.6" y1="229" x2="793.6" y2="266" class="ln-m"/>
<line x1="824.8" y1="229" x2="824.8" y2="266" class="ln-m"/>
<line x1="856" y1="229" x2="856" y2="266" class="ln-m"/>
<text x="778" y="221" text-anchor="middle" class="t-sm halo">PIER +2.40 beyond</text>
<rect x="671.4" y="205" width="34.67" height="36" class="beyond"/>
<polygon points="667.93,205 709.53,205 688.73,195" class="beyond"/>
<text x="688.73" y="189" text-anchor="middle" class="t-sm">HUT</text>
<path d="M654.07 245 Q654.69 206.6 657.19 181" class="trunk"/>
<path class="palm" d="M657.19 181Q650.38 174.33 643.57 181.96Q650.38 179.33 657.19 181Z M657.19 181Q652.85 173 648.51 177.17Q652.85 178 657.19 181Z M657.19 181Q653.51 171.6 649.84 174.38Q653.51 176.6 657.19 181Z M657.19 181Q656.83 171.59 656.47 171.71Q656.83 176.59 657.19 181Z M657.19 181Q660.02 172.32 662.86 174.76Q660.02 177.32 657.19 181Z M657.19 181Q662.55 173.16 667.91 178.44Q662.55 178.16 657.19 181Z M657.19 181Q664.01 173.71 670.84 180.88Q664.01 178.71 657.19 181Z"/>
<path d="M577.8 214 Q578.42 173.2 580.92 146" class="trunk"/>
<path class="palm" d="M580.92 146Q574.23 140.1 567.55 148.2Q574.23 145.1 580.92 146Z M580.92 146Q575.6 138.22 570.29 143.49Q575.6 143.22 580.92 146Z M580.92 146Q577.49 136.45 574.05 138.94Q577.49 141.45 580.92 146Z M580.92 146Q580.88 136.04 580.85 135.66Q580.88 141.04 580.92 146Z M580.92 146Q584.12 136.95 587.31 139.5Q584.12 141.95 580.92 146Z M580.92 146Q585.44 138.25 589.97 142.75Q585.44 143.25 580.92 146Z M580.92 146Q586.94 140.06 592.95 147.38Q586.94 145.06 580.92 146Z"/>
<polygon points="820.81,250 934,250 934,265 898.81,259" class="water"/>
<line x1="820.81" y1="250" x2="934" y2="250" class="ln-water"/>
<polygon points="50,166 209.47,166 209.47,166 209.47,167.5 211.81,167.5 211.81,169 214.15,169 214.15,170.5 216.49,170.5 216.49,172 218.83,172 218.83,173.5 221.17,173.5 221.17,175 223.51,175 223.51,176.5 225.85,176.5 225.85,178 228.19,178 228.19,179.5 230.53,179.5 230.53,181 232.87,181 232.87,182.5 235.21,182.5 235.21,184 237.55,184 237.55,185.5 239.89,185.5 239.89,187 242.23,187 242.23,188.5 244.57,188.5 244.57,190 260.69,190 260.69,191.5 263.03,191.5 263.03,193 265.37,193 265.37,194.5 267.71,194.5 267.71,196 270.05,196 270.05,197.5 272.39,197.5 272.39,199 274.73,199 274.73,200.5 277.07,200.5 277.07,202 279.41,202 279.41,203.5 281.75,203.5 281.75,205 284.09,205 284.09,206.5 286.43,206.5 286.43,208 288.77,208 288.77,209.5 291.11,209.5 291.11,211 293.45,211 293.45,212.5 295.79,212.5 295.79,214 296.13,214 562.2,214 562.2,214 562.2,215.5 564.54,215.5 564.54,217 566.88,217 566.88,218.5 630.67,218.5 630.67,241 820.81,250 898.81,259 934,265 934,290 50,290" class="poche"/>
<polygon points="50,166 209.47,166 209.47,166 209.47,167.5 211.81,167.5 211.81,169 214.15,169 214.15,170.5 216.49,170.5 216.49,172 218.83,172 218.83,173.5 221.17,173.5 221.17,175 223.51,175 223.51,176.5 225.85,176.5 225.85,178 228.19,178 228.19,179.5 230.53,179.5 230.53,181 232.87,181 232.87,182.5 235.21,182.5 235.21,184 237.55,184 237.55,185.5 239.89,185.5 239.89,187 242.23,187 242.23,188.5 244.57,188.5 244.57,190 260.69,190 260.69,191.5 263.03,191.5 263.03,193 265.37,193 265.37,194.5 267.71,194.5 267.71,196 270.05,196 270.05,197.5 272.39,197.5 272.39,199 274.73,199 274.73,200.5 277.07,200.5 277.07,202 279.41,202 279.41,203.5 281.75,203.5 281.75,205 284.09,205 284.09,206.5 286.43,206.5 286.43,208 288.77,208 288.77,209.5 291.11,209.5 291.11,211 293.45,211 293.45,212.5 295.79,212.5 295.79,214 296.13,214 562.2,214 562.2,214 562.2,215.5 564.54,215.5 564.54,217 566.88,217 566.88,218.5 630.67,218.5 630.67,241 820.81,250 898.81,259 934,265 934,290 50,290" fill="url(#ca-earth)"/>
<polyline points="50,166 209.47,166 209.47,166 209.47,167.5 211.81,167.5 211.81,169 214.15,169 214.15,170.5 216.49,170.5 216.49,172 218.83,172 218.83,173.5 221.17,173.5 221.17,175 223.51,175 223.51,176.5 225.85,176.5 225.85,178 228.19,178 228.19,179.5 230.53,179.5 230.53,181 232.87,181 232.87,182.5 235.21,182.5 235.21,184 237.55,184 237.55,185.5 239.89,185.5 239.89,187 242.23,187 242.23,188.5 244.57,188.5 244.57,190 260.69,190 260.69,191.5 263.03,191.5 263.03,193 265.37,193 265.37,194.5 267.71,194.5 267.71,196 270.05,196 270.05,197.5 272.39,197.5 272.39,199 274.73,199 274.73,200.5 277.07,200.5 277.07,202 279.41,202 279.41,203.5 281.75,203.5 281.75,205 284.09,205 284.09,206.5 286.43,206.5 286.43,208 288.77,208 288.77,209.5 291.11,209.5 291.11,211 293.45,211 293.45,212.5 295.79,212.5 295.79,214 296.13,214 562.2,214 562.2,214 562.2,215.5 564.54,215.5 564.54,217 566.88,217 566.88,218.5 630.67,218.5 630.67,241 820.81,250 898.81,259 934,265" class="ln-h"/>
<rect x="129.73" y="165.5" width="34.67" height="0.5" class="solid"/>
<text x="147.07" y="160" text-anchor="middle" class="t-sm halo">ROAD</text>
<line x1="207.73" y1="166" x2="207.73" y2="155" class="ln"/>
<rect x="338.6" y="208" width="11.96" height="6" class="z-lawn"/>
<rect x="338.6" y="208" width="11.96" height="6" class="ln-m"/>
<rect x="467.04" y="208" width="11.96" height="6" class="z-lawn"/>
<rect x="467.04" y="208" width="11.96" height="6" class="ln-m"/>
<rect x="350.56" y="209.5" width="8.84" height="4.5" class="conc"/>
<rect x="458.2" y="209.5" width="8.84" height="4.5" class="conc"/>
<rect x="359.4" y="208" width="1.56" height="6" class="solid"/>
<rect x="456.64" y="208" width="1.56" height="6" class="solid"/>
<rect x="360.96" y="208.5" width="95.68" height="1.5" class="z-lawn"/>
<line x1="402.73" y1="208.5" x2="402.73" y2="146.5" class="trunk"/>
<g class="tree-o"><ellipse cx="402.73" cy="146.5" rx="41.18" ry="25.99"/><ellipse cx="367.66" cy="149.6" rx="23.37" ry="15.76"/><ellipse cx="369.73" cy="138.84" rx="20.93" ry="15.29"/><ellipse cx="380.65" cy="130.12" rx="24.44" ry="15.06"/><ellipse cx="390.44" cy="126.86" rx="21.8" ry="16.58"/><ellipse cx="408.07" cy="125.8" rx="21.27" ry="16.43"/><ellipse cx="427.45" cy="131.49" rx="20.64" ry="14.14"/><ellipse cx="437.81" cy="143.42" rx="21.37" ry="14.54"/><ellipse cx="436.64" cy="152.64" rx="24.06" ry="14.77"/></g>
<g class="tree-f"><ellipse cx="402.73" cy="146.5" rx="40.28" ry="25.09"/><ellipse cx="367.66" cy="149.6" rx="22.47" ry="14.86"/><ellipse cx="369.73" cy="138.84" rx="20.03" ry="14.39"/><ellipse cx="380.65" cy="130.12" rx="23.54" ry="14.16"/><ellipse cx="390.44" cy="126.86" rx="20.9" ry="15.68"/><ellipse cx="408.07" cy="125.8" rx="20.37" ry="15.53"/><ellipse cx="427.45" cy="131.49" rx="19.74" ry="13.24"/><ellipse cx="437.81" cy="143.42" rx="20.47" ry="13.64"/><ellipse cx="436.64" cy="152.64" rx="23.16" ry="13.87"/></g>
<line x1="629.8" y1="218.5" x2="629.8" y2="207.5" class="ln"/>
<rect class="avatar" x="170.73" y="158.72" width="4.68" height="7.28" rx="1.87"/>
<circle class="avatar" cx="173.07" cy="156.29" r="2.86"/>
<rect class="avatar" x="322.39" y="206.72" width="4.68" height="7.28" rx="1.87"/>
<circle class="avatar" cx="324.73" cy="204.29" r="2.86"/>
<rect class="avatar" x="339.73" y="206.72" width="4.68" height="7.28" rx="1.87"/>
<circle class="avatar" cx="342.07" cy="204.29" r="2.86"/>
<rect class="avatar" x="504.39" y="206.72" width="4.68" height="7.28" rx="1.87"/>
<circle class="avatar" cx="506.73" cy="204.29" r="2.86"/>
<rect class="avatar" x="352.38" y="205.08" width="4.68" height="4.42" rx="1.87"/>
<rect class="avatar" x="354.72" y="207.94" width="4.42" height="1.56" rx="0.65"/>
<rect class="avatar" x="358.1" y="207.94" width="1.3" height="5.2" rx="0.52"/>
<circle class="avatar" cx="354.72" cy="202.65" r="2.86"/>
<rect class="avatar" x="599.73" y="211.22" width="4.68" height="7.28" rx="1.87"/>
<circle class="avatar" cx="602.07" cy="208.79" r="2.86"/>
<rect class="avatar" x="738.39" y="235.72" width="4.68" height="7.28" rx="1.87"/>
<circle class="avatar" cx="740.73" cy="233.29" r="2.86"/>
<rect class="avatar" x="764.39" y="238.72" width="4.68" height="7.28" rx="1.87"/>
<circle class="avatar" cx="766.73" cy="236.29" r="2.86"/>
<circle class="avatar" cx="845.6" cy="247" r="3.4"/>
<polygon class="ink-f" points="56.4,159 64.4,159 60.4,166"/>
<text class="t-dim halo" x="67.4" y="163" text-anchor="start">+8.40 STREET · FORECOURT</text>
<polygon class="ink-f" points="303.4,207 311.4,207 307.4,214"/>
<text class="t-dim halo" x="314.4" y="225" text-anchor="start">+3.60 PLAZA</text>
<polygon class="ink-f" points="585.07,211.5 593.07,211.5 589.07,218.5"/>
<text class="t-dim halo" x="596.07" y="229.5" text-anchor="start">+3.15 PROMENADE</text>
<polygon class="ink-f" points="629.27,234 637.27,234 633.27,241"/>
<text class="t-dim halo" x="640.27" y="252" text-anchor="start">+0.90 BEACH</text>
<polygon class="ink-f" points="919.6,243 927.6,243 923.6,250"/>
<text class="t-dim halo" x="916.6" y="247" text-anchor="end">±0.00 SWL</text>
<polygon class="ink-f" points="894.81,252 902.81,252 898.81,259"/>
<text class="t-dim halo" x="905.81" y="270" text-anchor="start">−0.90 WADE LIMIT</text>
<line x1="264.07" y1="186" x2="268.4" y2="126" class="ln-m"/>
<circle cx="264.07" cy="186" r="0"/>
<circle class="ink-f" cx="264.07" cy="186" r="1.8"/>
<text class="t-lbl halo" x="271.4" y="124" text-anchor="start">MAIN STAIR · 2 × 16R · TREAD 0.45 · LANDING 3.10</text>
<line x1="408.8" y1="209" x2="450.4" y2="96" class="ln-m"/>
<circle cx="408.8" cy="209" r="0"/>
<circle class="ink-f" cx="408.8" cy="209" r="1.8"/>
<text class="t-lbl halo" x="453.4" y="94" text-anchor="start">PLANTER Ø19 · BENCH RING Ø27 · TREE Ø22</text>
<line x1="565.67" y1="216" x2="567.4" y2="154" class="ln-m"/>
<circle cx="565.67" cy="216" r="0"/>
<circle class="ink-f" cx="565.67" cy="216" r="1.8"/>
<text class="t-lbl halo" x="570.4" y="152" text-anchor="start">3 STEPS DOWN TO THE PROMENADE</text>
<line x1="629.8" y1="228" x2="654.07" y2="184" class="ln-m"/>
<circle cx="629.8" cy="228" r="0"/>
<circle class="ink-f" cx="629.8" cy="228" r="1.8"/>
<text class="t-lbl halo" x="657.07" y="182" text-anchor="start">SEA WALL 2.25 · RAIL 1.10</text>
<line class="dim" x1="207.47" y1="214" x2="202.13" y2="214"/><line class="dim" x1="207.47" y1="166" x2="202.13" y2="166"/><line class="dim" x1="205.13" y1="163" x2="205.13" y2="217"/><line class="dim-t" x1="202.13" y1="217" x2="208.13" y2="211"/><line class="dim-t" x1="202.13" y1="169" x2="208.13" y2="163"/><text class="t-dim halo" x="201.13" y="190" text-anchor="middle" transform="rotate(-90 201.13 190)">4.80</text>
<line class="dim" x1="129.73" y1="292" x2="129.73" y2="305"/><line class="dim" x1="164.4" y1="292" x2="164.4" y2="305"/><line class="dim" x1="126.73" y1="302" x2="167.4" y2="302"/><line class="dim-t" x1="126.73" y1="305" x2="132.73" y2="299"/><line class="dim-t" x1="161.4" y1="305" x2="167.4" y2="299"/><text class="t-dim halo" x="147.07" y="299" text-anchor="middle">6.7</text>
<text x="147.07" y="320" text-anchor="middle" class="t-sm">ROAD</text>
<line class="dim" x1="164.4" y1="292" x2="164.4" y2="305"/><line class="dim" x1="209.47" y1="292" x2="209.47" y2="305"/><line class="dim" x1="161.4" y1="302" x2="212.47" y2="302"/><line class="dim-t" x1="161.4" y1="305" x2="167.4" y2="299"/><line class="dim-t" x1="206.47" y1="305" x2="212.47" y2="299"/><text class="t-dim halo" x="186.93" y="299" text-anchor="middle">8.7</text>
<text x="186.93" y="320" text-anchor="middle" class="t-sm">FORECOURT</text>
<line class="dim" x1="209.47" y1="292" x2="209.47" y2="305"/><line class="dim" x1="296.13" y1="292" x2="296.13" y2="305"/><line class="dim" x1="206.47" y1="302" x2="299.13" y2="302"/><line class="dim-t" x1="206.47" y1="305" x2="212.47" y2="299"/><line class="dim-t" x1="293.13" y1="305" x2="299.13" y2="299"/><text class="t-dim halo" x="252.8" y="299" text-anchor="middle">16.7</text>
<text x="252.8" y="320" text-anchor="middle" class="t-sm">MAIN STAIR</text>
<line class="dim" x1="296.13" y1="292" x2="296.13" y2="305"/><line class="dim" x1="562.2" y1="292" x2="562.2" y2="305"/><line class="dim" x1="293.13" y1="302" x2="565.2" y2="302"/><line class="dim-t" x1="293.13" y1="305" x2="299.13" y2="299"/><line class="dim-t" x1="559.2" y1="305" x2="565.2" y2="299"/><text class="t-dim halo" x="429.17" y="299" text-anchor="middle">51.2</text>
<text x="429.17" y="320" text-anchor="middle" class="t-sm">CENTRAL PLAZA</text>
<line class="dim" x1="562.2" y1="292" x2="562.2" y2="305"/><line class="dim" x1="630.67" y1="292" x2="630.67" y2="305"/><line class="dim" x1="559.2" y1="302" x2="633.67" y2="302"/><line class="dim-t" x1="559.2" y1="305" x2="565.2" y2="299"/><line class="dim-t" x1="627.67" y1="305" x2="633.67" y2="299"/><text class="t-dim halo" x="596.43" y="299" text-anchor="middle">13.2</text>
<text x="596.43" y="320" text-anchor="middle" class="t-sm">PROMENADE</text>
<line class="dim" x1="630.67" y1="292" x2="630.67" y2="305"/><line class="dim" x1="820.81" y1="292" x2="820.81" y2="305"/><line class="dim" x1="627.67" y1="302" x2="823.81" y2="302"/><line class="dim-t" x1="627.67" y1="305" x2="633.67" y2="299"/><line class="dim-t" x1="817.81" y1="305" x2="823.81" y2="299"/><text class="t-dim halo" x="725.74" y="299" text-anchor="middle">36.6</text>
<text x="725.74" y="320" text-anchor="middle" class="t-sm">BEACH</text>
<line class="dim" x1="820.81" y1="292" x2="820.81" y2="305"/><line class="dim" x1="898.81" y1="292" x2="898.81" y2="305"/><line class="dim" x1="817.81" y1="302" x2="901.81" y2="302"/><line class="dim-t" x1="817.81" y1="305" x2="823.81" y2="299"/><line class="dim-t" x1="895.81" y1="305" x2="901.81" y2="299"/><text class="t-dim halo" x="859.81" y="299" text-anchor="middle">15.0</text>
<text x="859.81" y="320" text-anchor="middle" class="t-sm">WADE</text>
<line class="dim" x1="129.73" y1="328" x2="129.73" y2="339"/><line class="dim" x1="820.81" y1="328" x2="820.81" y2="339"/><line class="dim" x1="126.73" y1="336" x2="823.81" y2="336"/><line class="dim-t" x1="126.73" y1="339" x2="132.73" y2="333"/><line class="dim-t" x1="817.81" y1="339" x2="823.81" y2="333"/><text class="t-dim halo" x="475.27" y="333" text-anchor="middle">132.9 · ROAD TO SHORELINE</text>
<rect x="50" y="66" width="884" height="284" class="frame"/></svg>
